<?xml version="1.0" encoding="UTF-8" standalone="no"?>
<svg
   xmlns:dc="http://purl.org/dc/elements/1.1/"
   xmlns:cc="http://creativecommons.org/ns#"
   xmlns:rdf="http://www.w3.org/1999/02/22-rdf-syntax-ns#"
   xmlns:svg="http://www.w3.org/2000/svg"
   xmlns="http://www.w3.org/2000/svg"
   xmlns:sodipodi="http://sodipodi.sourceforge.net/DTD/sodipodi-0.dtd"
   xmlns:inkscape="http://www.inkscape.org/namespaces/inkscape"
   width="56.528843mm"
   height="56.528843mm"
   viewBox="0 0 56.528843 56.528843"
   version="1.1"
   id="svg8"
   sodipodi:docname="favicon.svg"
   inkscape:version="0.92.3 (2405546, 2018-03-11)"
   inkscape:export-filename="C:\Repositories\TensorWorks\internal\jekyll-theme-gitbook\assets\images\favicon.png"
   inkscape:export-xdpi="279.49976"
   inkscape:export-ydpi="279.49976">
  <sodipodi:namedview
     pagecolor="#ffffff"
     bordercolor="#666666"
     borderopacity="1"
     objecttolerance="10"
     gridtolerance="10"
     guidetolerance="10"
     inkscape:pageopacity="0"
     inkscape:pageshadow="2"
     inkscape:window-width="1556"
     inkscape:window-height="1368"
     id="namedview95"
     showgrid="false"
     fit-margin-top="5"
     fit-margin-left="5"
     fit-margin-right="5"
     fit-margin-bottom="5"
     inkscape:zoom="0.92096798"
     inkscape:cx="106.28325"
     inkscape:cy="107.36907"
     inkscape:window-x="-7"
     inkscape:window-y="0"
     inkscape:window-maximized="0"
     inkscape:current-layer="svg8" />
  <defs
     id="defs2" />
  <metadata
     id="metadata5">
    <rdf:RDF>
      <cc:Work
         rdf:about="">
        <dc:format>image/svg+xml</dc:format>
        <dc:type
           rdf:resource="http://purl.org/dc/dcmitype/StillImage" />
        <dc:title></dc:title>
      </cc:Work>
    </rdf:RDF>
  </metadata>
  <g
     style="display:none"
     transform="matrix(0.0441792,0,0,0.0441792,4.607761,65.273214)"
     id="RenderLayer_LineSet">
    <g
       id="strokes">
      <path
         style="fill:none;stroke:#000000;stroke-width:3;stroke-linecap:butt;stroke-linejoin:round;stroke-opacity:1"
         d="m 676.908,476.183 h 10 10 10 10 10 10 10 10 10 10 10 10 10 10 10 7.092 v 10 10 10 10 10 10 10 10 10 10 10 10 10 10 10 10 10 10 10 10 10 10 10 10 10 10 10 10 10 10 10 5.817"
         id="path4518"
         inkscape:connector-curvature="0" />
      <path
         style="fill:none;stroke:#000000;stroke-width:3;stroke-linecap:butt;stroke-linejoin:round;stroke-opacity:1"
         d="m 1361.43,255.449 h -10 -10 -10 -10 -10 -10 -10 -10 -10 -10 -10 -10 -10 -10 -10 -10 -10 -10 -10 -10 -10 -10 -8.706"
         id="path4520"
         inkscape:connector-curvature="0" />
      <path
         style="fill:none;stroke:#000000;stroke-width:3;stroke-linecap:butt;stroke-linejoin:round;stroke-opacity:1"
         d="m 1366.208,262.689 0.572,-2.237 -0.256,-2.019 -1.057,-1.601 -1.755,-1.029 -2.282,-0.354 h -10 -10 -10 -10 -10 -10 -10 -10 -10 -10 -10 -10 -10 -10 -10 -10 -10 -10 -10 -10 -10 -10 -8.706"
         id="path4522"
         inkscape:connector-curvature="0" />
      <path
         style="fill:none;stroke:#000000;stroke-width:3;stroke-linecap:butt;stroke-linejoin:round;stroke-opacity:1"
         d="m 653.15,476.183 h 10 10 3.758"
         id="path4524"
         inkscape:connector-curvature="0" />
      <path
         style="fill:none;stroke:#000000;stroke-width:3;stroke-linecap:butt;stroke-linejoin:round;stroke-opacity:1"
         d="m 1243.092,476.183 h 10 10 3.939 l 2.585,-0.354 2.636,-1.028 2.427,-1.602 1.982,-2.019"
         id="path4526"
         inkscape:connector-curvature="0" />
      <path
         style="fill:none;stroke:#000000;stroke-width:3;stroke-linecap:butt;stroke-linejoin:round;stroke-opacity:1"
         d="m 1276.661,471.18 1.342,-2.237 3.932,-9.195 3.932,-9.194 3.932,-9.195 3.932,-9.194 3.932,-9.195 3.932,-9.194 3.932,-9.195 3.932,-9.194 3.933,-9.195 3.932,-9.194 3.932,-9.195 3.932,-9.194 3.932,-9.195 3.932,-9.194 3.932,-9.195 3.932,-9.194 3.932,-9.195 3.932,-9.194 3.932,-9.195 3.932,-9.194 3.933,-9.195 3.932,-9.194 1.699,-3.975"
         id="path4528"
         inkscape:connector-curvature="0" />
      <path
         style="fill:none;stroke:#000000;stroke-width:3;stroke-linecap:butt;stroke-linejoin:round;stroke-opacity:1"
         d="m 1086,255.449 h -10 -10 -10 -10 -10 -10 -10 -10 -10 -10 -10 -10 -10 -10 -10 -10 -10 -10 -10 -10 -10 -10 -10 -10 -12 -10 -10 -10 -10 -6.724"
         id="path4530"
         inkscape:connector-curvature="0" />
      <path
         style="fill:none;stroke:#000000;stroke-width:3;stroke-linecap:butt;stroke-linejoin:round;stroke-opacity:1"
         d="m 787.276,255.449 h -10 -10 -10 -10 -10 -10 -10 -10 -10 -10 -10 -10 -10 -10 -10 -10 -10 -10 -10 -10 -10 -10 -8.045 l -2.282,0.354 -1.758,1.03"
         id="path4532"
         inkscape:connector-curvature="0" />
      <path
         style="fill:none;stroke:#000000;stroke-width:3;stroke-linecap:butt;stroke-linejoin:round;stroke-opacity:1"
         d="m 554.131,258.436 -0.259,2.02 0.568,2.239 3.915,9.202 3.915,9.202 3.915,9.201 3.915,9.202 3.915,9.202 3.916,9.201 3.915,9.202 3.915,9.202 3.915,9.201 3.915,9.202 3.916,9.202 3.915,9.202 3.915,9.201 3.915,9.202 3.915,9.202 3.915,9.201 3.916,9.202 3.915,9.202 3.915,9.201 3.915,9.202 3.915,9.202 3.915,9.202 1.619,3.804 1.338,2.239 1.978,2.02 2.425,1.603 2.633,1.03 2.584,0.354"
         id="path4534"
         inkscape:connector-curvature="0" />
      <path
         style="fill:none;stroke:#000000;stroke-width:3;stroke-linecap:butt;stroke-linejoin:round;stroke-opacity:1"
         d="m 1366.208,262.689 -3.932,9.195 -3.932,9.194 -3.932,9.195 -3.932,9.194 -3.932,9.195 -3.932,9.194 -3.932,9.195 -3.932,9.194 -3.932,9.195 -3.933,9.194 -3.932,9.195 -3.932,9.194 -3.932,9.195 -3.932,9.194 -3.932,9.195 -3.932,9.194 -3.932,9.195 -3.932,9.194 -3.932,9.195 -3.932,9.194 -3.932,9.195 -3.932,9.194 -1.7,3.975 -1.342,2.237"
         id="path4536"
         inkscape:connector-curvature="0" />
      <path
         style="fill:none;stroke:#000000;stroke-width:3;stroke-linecap:butt;stroke-linejoin:round;stroke-opacity:1"
         d="m 1269.616,475.829 2.636,-1.028 2.427,-1.602 1.982,-2.019"
         id="path4538"
         inkscape:connector-curvature="0" />
      <path
         style="fill:none;stroke:#000000;stroke-width:3;stroke-linecap:butt;stroke-linejoin:round;stroke-opacity:1"
         d="m 1269.616,475.829 -2.585,0.354"
         id="path4540"
         inkscape:connector-curvature="0" />
      <path
         style="fill:none;stroke:#000000;stroke-width:3;stroke-linecap:butt;stroke-linejoin:round;stroke-opacity:1"
         d="m 834,792 v 10 10 10 10 10 5.125 l 0.385,2.433 1.119,2.196 1.742,1.742 2.196,1.119 2.433,0.385 h 10 10 10 10 10 10 10 10 10 10 10 10 10 10 10 10 10 10 10 10 10 10 10 6.25 l 2.434,-0.385 2.195,-1.119"
         id="path4542"
         inkscape:connector-curvature="0" />
      <path
         style="fill:none;stroke:#000000;stroke-width:3;stroke-linecap:butt;stroke-linejoin:round;stroke-opacity:1"
         d="m 1082.754,853.496 1.742,-1.742"
         id="path4544"
         inkscape:connector-curvature="0" />
      <path
         style="fill:none;stroke:#000000;stroke-width:3;stroke-linecap:butt;stroke-linejoin:round;stroke-opacity:1"
         d="m 1084.496,851.754 1.119,-2.195"
         id="path4546"
         inkscape:connector-curvature="0" />
      <path
         style="fill:none;stroke:#000000;stroke-width:3;stroke-linecap:butt;stroke-linejoin:round;stroke-opacity:1"
         d="M 1085.615,849.559 1086,847.125"
         id="path4548"
         inkscape:connector-curvature="0" />
      <path
         style="fill:none;stroke:#000000;stroke-width:3;stroke-linecap:butt;stroke-linejoin:round;stroke-opacity:1"
         d="m 676.908,476.183 -4.472,8.945 -4.472,8.944 -4.472,8.944 -4.472,8.945 -4.472,8.944 -4.472,8.944 -4.473,8.944 L 645,540 l -4.472,-8.944 -4.472,-8.945 -4.472,-8.944 -4.473,-8.944 -4.472,-8.944 -4.472,-8.945 -4.472,-8.944 -4.472,-8.944 -4.472,-8.944 -4.472,-8.945 -4.472,-8.944 -4.473,-8.944 -4.472,-8.945 -4.472,-8.944 -4.472,-8.944 -4.472,-8.944 -4.472,-8.945 -4.472,-8.944 -4.473,-8.944 -4.472,-8.944 -4.472,-8.945 -4.472,-8.944 -4.472,-8.944 -4.472,-8.944 -4.472,-8.945 -4.473,-8.944 -4.472,-8.944 -4.472,-8.945 -4.472,-8.944 -4.472,-8.944 -4.472,-8.944 -4.472,-8.945 -4.473,-8.944 -4.472,-8.944 -1.925,-3.851"
         id="path4550"
         inkscape:connector-curvature="0" />
      <path
         style="fill:none;stroke:#000000;stroke-width:3;stroke-linecap:butt;stroke-linejoin:round;stroke-opacity:1"
         d="m 1125.375,855 h 10 10 10 10 10 10 10 10 10 10 10 10 10 10 10 10 10 10 10 10 10 10 10 10 10 10 10 10 10 9.25 l 2.606,-0.345 2.696,-1 2.521,-1.558 2.1,-1.964 1.474,-2.177 4.472,-8.944 4.472,-8.944 4.472,-8.944 4.472,-8.945 4.473,-8.944 4.472,-8.944 4.472,-8.945 4.472,-8.944 4.472,-8.944 4.472,-8.944 4.472,-8.945 4.473,-8.944 4.472,-8.944 4.472,-8.944 4.472,-8.945 4.472,-8.944 4.472,-8.944 4.472,-8.944 4.472,-8.945 4.473,-8.944 4.472,-8.944 4.472,-8.945 4.472,-8.944 4.472,-8.944 4.472,-8.944 4.472,-8.945 4.473,-8.944 4.472,-8.944 4.472,-8.944 4.472,-8.945 4.472,-8.944 4.472,-8.944 4.472,-8.945 4.472,-8.944 4.473,-8.944 4.472,-8.944 4.472,-8.945 4.472,-8.944 4.472,-8.944 4.472,-8.944 4.472,-8.945 4.473,-8.944 4.472,-8.944 4.472,-8.945 4.472,-8.944 4.472,-8.944 4.472,-8.944 4.472,-8.945 4.472,-8.944 4.473,-8.944 4.472,-8.944 4.472,-8.945 4.472,-8.944 4.472,-8.944 4.472,-8.945 4.472,-8.944 4.473,-8.944 4.472,-8.944 4.472,-8.945 4.472,-8.944 4.472,-8.944 4.472,-8.944 4.472,-8.945 4.473,-8.944 4.472,-8.944 4.472,-8.945 4.472,-8.944 4.472,-8.944 3.851,-7.702"
         id="path4552"
         inkscape:connector-curvature="0" />
      <path
         style="fill:none;stroke:#000000;stroke-width:3;stroke-linecap:butt;stroke-linejoin:round;stroke-opacity:1"
         d="m 484.926,226.345 -2.695,-1 -2.606,-0.345 h -10 -10 -10 -10 -10 -10 -10 -10 -10 -10 -10 -10 -10 -10 -10 -10 -10 -10 -10 -10 -10 -10 -10 -10 -10 -10 -10 -10 -10 -9.25 l -2.261,0.345 -1.695,1 -0.963,1.558 -0.137,1.964 0.703,2.177"
         id="path4554"
         inkscape:connector-curvature="0" />
      <path
         style="fill:none;stroke:#000000;stroke-width:3;stroke-linecap:butt;stroke-linejoin:round;stroke-opacity:1"
         d="m 802.448,852.097 2.1,-1.964 1.474,-2.177 4.472,-8.944 4.472,-8.944 4.472,-8.944 4.472,-8.945 4.473,-8.944 4.472,-8.944 L 834,792"
         id="path4556"
         inkscape:connector-curvature="0" />
      <path
         style="fill:none;stroke:#000000;stroke-width:3;stroke-linecap:butt;stroke-linejoin:round;stroke-opacity:1"
         d="m 490.074,853.655 2.695,1 2.606,0.345 h 10 10 10 10 10 10 10 10 10 10 10 10 10 10 10 10 10 10 10 10 10 10 10 10 10 10 10 10 10 9.25"
         id="path4558"
         inkscape:connector-curvature="0" />
      <path
         style="fill:none;stroke:#000000;stroke-width:3;stroke-linecap:butt;stroke-linejoin:round;stroke-opacity:1"
         d="m 176.022,232.044 4.472,8.944 4.472,8.944 4.472,8.944 4.472,8.945 4.472,8.944 4.473,8.944 4.472,8.945 4.472,8.944 4.472,8.944 4.472,8.944 4.472,8.945 4.472,8.944 4.473,8.944 4.472,8.944 4.472,8.945 4.472,8.944 4.472,8.944 4.472,8.944 4.472,8.945 4.473,8.944 4.472,8.944 4.472,8.945 4.472,8.944 4.472,8.944 4.472,8.944 4.472,8.945 4.472,8.944 4.473,8.944 4.472,8.944 4.472,8.945 4.472,8.944 4.472,8.944 4.472,8.945 4.472,8.944 4.473,8.944 4.472,8.944 4.472,8.945 4.472,8.944 4.472,8.944 4.472,8.944 4.472,8.945 4.473,8.944 4.472,8.944 4.472,8.945 4.472,8.944 4.472,8.944 4.472,8.944 4.472,8.945 4.472,8.944 4.473,8.944 4.472,8.944 4.472,8.945 4.472,8.944 4.472,8.944 4.472,8.944 4.472,8.945 4.473,8.944 4.472,8.944 4.472,8.945 4.472,8.944 4.472,8.944 4.472,8.944 4.472,8.945 4.473,8.944 4.472,8.944 4.472,8.944 4.472,8.945 4.472,8.944 3.851,7.702 1.474,2.177 2.1,1.963"
         id="path4560"
         inkscape:connector-curvature="0" />
      <path
         style="fill:none;stroke:#000000;stroke-width:3;stroke-linecap:butt;stroke-linejoin:round;stroke-opacity:1"
         d="m 491.022,232.044 -1.474,-2.177 -2.1,-1.963 -2.522,-1.559"
         id="path4562"
         inkscape:connector-curvature="0" />
      <path
         style="fill:none;stroke:#000000;stroke-width:3;stroke-linecap:butt;stroke-linejoin:round;stroke-opacity:1"
         d="m 1121.022,232.044 -1.474,-2.177 -2.1,-1.964 -2.522,-1.558 -2.695,-1 -2.606,-0.345 h -10 -10 -10 -10 -10 -10 -10 -10 -10 -10 -10 -10 -10 -10 -10 -10 -10 -10 -10 -10 -10 -10 -10 -10 -10 -10 -10 -10 -10 -9.25 l -2.606,0.345 -2.695,1"
         id="path4564"
         inkscape:connector-curvature="0" />
      <path
         style="fill:none;stroke:#000000;stroke-width:3;stroke-linecap:butt;stroke-linejoin:round;stroke-opacity:1"
         d="m 805.074,226.345 -2.522,1.558 -2.1,1.964 -1.474,2.177 -4.472,8.944 -4.472,8.944 -2.758,5.517"
         id="path4566"
         inkscape:connector-curvature="0" />
      <path
         style="fill:none;stroke:#000000;stroke-width:3;stroke-linecap:butt;stroke-linejoin:round;stroke-opacity:1"
         d="m 1440.375,225 -2.606,0.345 -2.695,1 -2.522,1.558"
         id="path4568"
         inkscape:connector-curvature="0" />
      <path
         style="fill:none;stroke:#000000;stroke-width:3;stroke-linecap:butt;stroke-linejoin:round;stroke-opacity:1"
         d="m 1743.978,232.044 0.703,-2.177"
         id="path4570"
         inkscape:connector-curvature="0" />
      <path
         style="fill:none;stroke:#000000;stroke-width:3;stroke-linecap:butt;stroke-linejoin:round;stroke-opacity:1"
         d="m 1744.544,227.903 -0.963,-1.558 -1.695,-1 -2.261,-0.345"
         id="path4572"
         inkscape:connector-curvature="0" />
      <path
         style="fill:none;stroke:#000000;stroke-width:3;stroke-linecap:butt;stroke-linejoin:round;stroke-opacity:1"
         d="m 483.978,847.956 -4.472,-8.944 -4.472,-8.944 -4.472,-8.944 -4.472,-8.945 -4.472,-8.944 -4.473,-8.944 -4.472,-8.945 -4.472,-8.944 -4.472,-8.944 -4.472,-8.944 -4.472,-8.945 -4.472,-8.944 -4.473,-8.944 -4.472,-8.944 -4.472,-8.945 -4.472,-8.944 -4.472,-8.944 -4.472,-8.945 -4.472,-8.944 -4.472,-8.944 -4.473,-8.944 -4.472,-8.945 -4.472,-8.944 -4.472,-8.944 -4.472,-8.944 -4.472,-8.945 -4.472,-8.944 -4.473,-8.944 -4.472,-8.945 -4.472,-8.944 -4.472,-8.944 -4.472,-8.944 -4.472,-8.945 -4.472,-8.944 -4.473,-8.944 -4.472,-8.944 -4.472,-8.945 -4.472,-8.944 -4.472,-8.944 -4.472,-8.945 -4.472,-8.944 -4.473,-8.944 -4.472,-8.944 -4.472,-8.945 -4.472,-8.944 -4.472,-8.944 -4.472,-8.944 -4.472,-8.945 -4.472,-8.944 -4.473,-8.944 -4.472,-8.944 -4.472,-8.945 -4.472,-8.944 -4.472,-8.944 -4.472,-8.945 -4.472,-8.944 -4.473,-8.944 -4.472,-8.944 -4.472,-8.945 -4.472,-8.944 -4.472,-8.944 -4.472,-8.945 -4.472,-8.944 -4.473,-8.944 -4.472,-8.944 -4.472,-8.945 -4.472,-8.944 -4.472,-8.944 -3.851,-7.702"
         id="path4574"
         inkscape:connector-curvature="0" />
      <path
         style="fill:none;stroke:#000000;stroke-width:3;stroke-linecap:butt;stroke-linejoin:round;stroke-opacity:1"
         d="m 1086,792 4.472,8.944 4.472,8.944 4.473,8.945 4.472,8.944 4.472,8.944 4.472,8.944 1.145,2.291 1.474,2.177 2.1,1.963 2.522,1.559 2.695,1"
         id="path4576"
         inkscape:connector-curvature="0" />
      <path
         style="fill:none;stroke:#000000;stroke-width:3;stroke-linecap:butt;stroke-linejoin:round;stroke-opacity:1"
         d="m 1122.769,854.655 2.606,0.345"
         id="path4578"
         inkscape:connector-curvature="0" />
      <path
         style="fill:none;stroke:#000000;stroke-width:3;stroke-linecap:butt;stroke-linejoin:round;stroke-opacity:1"
         d="m 487.552,852.096 2.522,1.559"
         id="path4580"
         inkscape:connector-curvature="0" />
      <path
         style="fill:none;stroke:#000000;stroke-width:3;stroke-linecap:butt;stroke-linejoin:round;stroke-opacity:1"
         d="m 794.625,855 2.606,-0.345 2.696,-1 2.521,-1.558"
         id="path4582"
         inkscape:connector-curvature="0" />
      <path
         style="fill:none;stroke:#000000;stroke-width:3;stroke-linecap:butt;stroke-linejoin:round;stroke-opacity:1"
         d="m 555.191,256.833 -1.06,1.603"
         id="path4584"
         inkscape:connector-curvature="0" />
      <path
         style="fill:none;stroke:#000000;stroke-width:3;stroke-linecap:butt;stroke-linejoin:round;stroke-opacity:1"
         d="m 653.15,476.183 h 10 10 3.758"
         id="path4586"
         inkscape:connector-curvature="0" />
      <path
         style="fill:none;stroke:#000000;stroke-width:3;stroke-linecap:butt;stroke-linejoin:round;stroke-opacity:1"
         d="m 1086,792 v -10 -10 -10 -10 -10 -10 -10 -10 -10 -10 -10 -10 -10 -10 -10 -10 -10 -10 -10 -10 -10 -10 -10 -10 -10 -10 -10 -10 -10 -10 -10 -5.817"
         id="path4588"
         inkscape:connector-curvature="0" />
      <path
         style="fill:none;stroke:#000000;stroke-width:3;stroke-linecap:butt;stroke-linejoin:round;stroke-opacity:1"
         d="m 1086,847.125 v -10 -10 -10 -10 -10 V 792"
         id="path4590"
         inkscape:connector-curvature="0" />
      <path
         style="fill:none;stroke:#000000;stroke-width:3;stroke-linecap:butt;stroke-linejoin:round;stroke-opacity:1"
         d="m 1086,476.183 h 10 10 10 10 10 10 10 10 10 10 10 10 10 10 10 7.092"
         id="path4592"
         inkscape:connector-curvature="0" />
      <path
         style="fill:none;stroke:#000000;stroke-width:3;stroke-linecap:butt;stroke-linejoin:round;stroke-opacity:1"
         d="m 1243.092,476.183 4.472,8.945 4.472,8.944 4.472,8.944 4.472,8.944 4.472,8.945 4.473,8.944 4.472,8.944 L 1275,540"
         id="path4594"
         inkscape:connector-curvature="0" />
      <path
         style="fill:none;stroke:#000000;stroke-width:3;stroke-linecap:butt;stroke-linejoin:round;stroke-opacity:1"
         d="m 1132.724,255.449 -4.472,-8.945 -4.472,-8.944 -2.758,-5.516"
         id="path4596"
         inkscape:connector-curvature="0" />
      <path
         style="fill:none;stroke:#000000;stroke-width:3;stroke-linecap:butt;stroke-linejoin:round;stroke-opacity:1"
         d="m 1275,540 -4.472,-8.944 -4.472,-8.945 -4.472,-8.944 -4.473,-8.944 -4.472,-8.944 -4.472,-8.945 -4.472,-8.944 -0.603,-1.207"
         id="path4598"
         inkscape:connector-curvature="0" />
      <path
         style="fill:none;stroke:#000000;stroke-width:3;stroke-linecap:butt;stroke-linejoin:round;stroke-opacity:1"
         d="m 1132.724,255.449 h -10 -10 -10 -10 -6.724"
         id="path4600"
         inkscape:connector-curvature="0" />
      <path
         style="fill:none;stroke:#000000;stroke-width:3;stroke-linecap:butt;stroke-linejoin:round;stroke-opacity:1"
         d="m 1428.978,232.044 -4.472,8.944 -4.472,8.944 -4.472,8.944 -4.472,8.945 -4.472,8.944 -4.472,8.944 -4.473,8.944 -4.472,8.945 -4.472,8.944 -4.472,8.944 -4.472,8.945 -4.472,8.944 -4.473,8.944 -4.472,8.944 -4.472,8.945 -4.472,8.944 -4.472,8.944 -4.472,8.944 -4.472,8.945 -4.472,8.944 -4.473,8.944 -4.472,8.945 -4.472,8.944 -4.472,8.944 -4.472,8.944 -4.472,8.945 -4.472,8.944 -4.473,8.944 -4.472,8.944 -4.472,8.945 -4.472,8.944 -4.472,8.944 -4.472,8.944 -4.472,8.945 L 1275,540"
         id="path4602"
         inkscape:connector-curvature="0" />
      <path
         style="fill:none;stroke:#000000;stroke-width:3;stroke-linecap:butt;stroke-linejoin:round;stroke-opacity:1"
         d="m 1430.452,229.867 -1.474,2.177"
         id="path4604"
         inkscape:connector-curvature="0" />
      <path
         style="fill:none;stroke:#000000;stroke-width:3;stroke-linecap:butt;stroke-linejoin:round;stroke-opacity:1"
         d="m 1432.552,227.903 -2.1,1.964"
         id="path4606"
         inkscape:connector-curvature="0" />
      <path
         style="fill:none;stroke:#000000;stroke-width:3;stroke-linecap:butt;stroke-linejoin:round;stroke-opacity:1"
         d="m 1739.625,225 h -10 -10 -10 -10 -10 -10 -10 -10 -10 -10 -10 -10 -10 -10 -10 -10 -10 -10 -10 -10 -10 -10 -10 -10 -10 -10 -10 -10 -10 -9.25"
         id="path4608"
         inkscape:connector-curvature="0" />
      <path
         style="fill:none;stroke:#000000;stroke-width:3;stroke-linecap:butt;stroke-linejoin:round;stroke-opacity:1"
         d="m 1744.681,229.867 -0.137,-1.964"
         id="path4610"
         inkscape:connector-curvature="0" />
    </g>
  </g>
  <g
     style="display:none"
     transform="matrix(0.14008016,0,0,0.14008016,29.045281,76.509944)"
     id="g4720">
    <path
       d="m 31.732,69.48 h 57 c 0.11,0 0.219,0.045 0.297,0.123 0.078,0.078 0.123,0.187 0.123,0.297 v 116.85 l 0.104,0.727 0.302,0.503 0.404,0.506 0.581,0.291 0.623,0.104 h 74.451 l 0.623,-0.104 0.664,-0.332 0.376,0.751 -0.72,0.36 -0.119,0.039 -0.72,0.12 -0.069,0.005 h -74.52 l -0.069,-0.005 -0.72,-0.12 -0.119,-0.039 -0.72,-0.36 -0.14,-0.113 -0.48,-0.6 -0.032,-0.046 -0.36,-0.601 -0.056,-0.156 -0.12,-0.84 -0.004,-0.06 V 70.32 h -56.58 z"
       id="path4671"
       inkscape:connector-curvature="0" />
    <path
       d="m 255.957,2.631 0.114,-0.686 V 1.52 L 255.844,1.218 255.383,0.942 254.777,0.841 H 168.051 V 0 h 86.76 l 0.069,0.006 0.72,0.12 0.147,0.054 0.6,0.36 0.12,0.108 0.36,0.48 c 0.055,0.073 0.084,0.161 0.084,0.252 v 0.6 l -0.006,0.069 -0.12,0.72 z"
       id="path4673"
       inkscape:connector-curvature="0" />
    <polygon
       points="225.806,69.48 226.544,69.164 227.298,68.733 227.849,68.071 228.494,68.609 227.895,69.329 227.78,69.425 226.94,69.905 226.897,69.926 226.058,70.286 225.892,70.32 168.052,70.32 168.052,69.48 "
       id="polygon4675" />
    <polygon
       points="254.182,6.744 255.382,3.744 255.396,3.712 255.996,2.512 256.747,2.888 256.155,4.072 254.962,7.056 254.959,7.062 253.76,9.941 253.754,9.955 252.437,12.829 251.239,15.702 250.039,18.582 250.033,18.595 248.717,21.469 247.521,24.338 246.321,27.336 246.313,27.355 244.996,30.229 243.8,33.102 243.797,33.108 241.277,38.867 240.079,41.742 238.881,44.618 237.682,47.616 237.677,47.628 235.157,53.387 233.959,56.262 233.953,56.275 232.637,59.148 231.439,62.021 230.239,64.901 230.233,64.915 228.913,67.795 228.907,67.808 228.547,68.528 227.796,68.152 228.153,67.438 229.467,64.572 230.664,61.699 231.864,58.818 231.87,58.805 233.187,55.932 234.384,53.059 234.387,53.052 236.904,47.298 238.102,44.304 238.104,44.299 239.304,41.418 240.504,38.539 240.507,38.532 243.026,32.773 244.224,29.898 244.229,29.885 245.546,27.015 246.742,24.024 246.744,24.019 247.944,21.139 247.95,21.125 249.267,18.252 250.464,15.378 251.664,12.499 251.67,12.485 252.987,9.612 "
       id="polygon4677" />
    <polygon
       points="1.542,0.938 1.144,1.236 0.64,0.564 1.12,0.204 1.303,0.126 2.022,0.006 2.092,0 168.052,0 168.052,0.84 2.127,0.84 "
       id="polygon4679" />
    <polygon
       points="10.878,25.695 13.398,31.575 13.399,31.579 14.6,34.458 15.796,37.331 17.114,40.205 17.12,40.219 18.319,43.099 19.52,45.979 19.521,45.984 20.718,48.975 22.034,51.845 22.04,51.858 23.239,54.739 24.437,57.613 26.957,63.372 26.959,63.378 28.16,66.259 28.162,66.264 28.625,67.424 29.069,68.088 29.615,68.745 30.252,69.169 30.978,69.48 31.732,69.48 31.732,70.32 30.892,70.32 30.726,70.286 29.886,69.926 29.819,69.89 29.099,69.41 29.009,69.329 28.409,68.609 28.382,68.573 27.902,67.853 27.862,67.776 27.383,66.579 26.186,63.706 23.667,57.948 23.664,57.941 22.464,55.062 21.267,52.189 19.95,49.315 19.942,49.296 18.743,46.298 17.544,43.421 16.347,40.548 15.03,37.675 15.024,37.662 13.824,34.782 12.625,31.905 10.105,26.025 10.104,26.021 8.904,23.142 7.707,20.268 6.39,17.395 6.384,17.382 5.186,14.505 2.666,8.625 2.664,8.622 1.464,5.742 0.264,2.861 0.253,2.833 0.013,2.113 0,1.898 0.12,1.298 0.943,1.462 0.846,1.953 1.045,2.553 2.239,5.418 3.438,8.295 5.958,14.175 5.959,14.179 7.157,17.052 8.474,19.925 8.479,19.938 9.679,22.818 10.879,25.699 10.492,25.86 "
       id="polygon4681" />
    <polygon
       points="244.824,28.579 246.024,25.699 246.03,25.685 247.347,22.812 248.544,19.938 249.744,17.059 249.75,17.045 251.066,14.172 253.463,8.301 254.664,5.418 254.67,5.405 255.99,2.525 256.754,2.875 255.437,5.749 254.239,8.622 251.841,14.499 251.834,14.515 250.517,17.388 249.319,20.262 248.119,23.142 248.113,23.155 246.797,26.029 245.6,28.901 244.399,31.782 244.396,31.789 243.078,34.784 241.88,37.662 238.157,46.306 236.959,49.182 234.438,55.065 233.239,57.941 233.233,57.955 231.916,60.829 230.72,63.702 229.52,66.582 229.508,66.608 228.907,67.808 228.547,68.528 227.796,68.152 228.156,67.432 228.75,66.245 229.944,63.378 231.144,60.499 231.15,60.485 232.467,57.612 233.664,54.739 236.186,48.854 237.384,45.979 241.105,37.334 242.304,34.458 242.308,34.451 243.625,31.456 "
       id="polygon4683" />
    <polygon
       points="227.298,68.733 227.849,68.071 228.494,68.609 227.895,69.329 227.78,69.425 226.94,69.905 226.897,69.926 226.058,70.286 225.727,69.514 226.544,69.164 "
       id="polygon4685" />
    <polyline
       points="225.892,70.32 225.052,70.32 225.052,69.48 225.892,69.48 "
       id="polyline4687" />
    <polyline
       points="166.764,188.558 167.244,187.958 167.899,188.482 167.42,189.082 "
       id="polyline4689" />
    <polyline
       points="167.211,188.004 167.572,187.404 168.292,187.836 167.932,188.437 "
       id="polyline4691" />
    <polyline
       points="167.516,187.561 167.636,186.721 168.467,186.84 168.348,187.68 "
       id="polyline4693" />
    <polyline
       points="1.228,1.152 0.868,1.632 0.196,1.128 0.556,0.648 "
       id="polyline4695" />
    <polyline
       points="167.632,186.78 167.632,69.9 168.472,69.9 168.472,186.78 "
       id="polyline4697" />
  </g>
  <circle
     style="opacity:1;fill:#0078d7;fill-opacity:1;stroke:#000000;stroke-width:0.8499999;stroke-miterlimit:4;stroke-dasharray:none;stroke-opacity:1"
     id="path904"
     cx="28.26442"
     cy="28.26442"
     r="22.83942" />
</svg>
