<?xml version="1.0" encoding="utf-8"?>
<!-- Generator: Adobe Illustrator 23.0.6, SVG Export Plug-In . SVG Version: 6.00 Build 0)  -->
<svg version="1.1" id="Layer_1" xmlns="http://www.w3.org/2000/svg" xmlns:xlink="http://www.w3.org/1999/xlink" x="0px" y="0px"
	 viewBox="0 0 155.21 21.12" style="enable-background:new 0 0 155.21 21.12;" xml:space="preserve">
<style type="text/css">
	.st0{fill:#49494B;}
</style>
<path class="st0" d="M147.41,8.47c0.26-1.87,1.08-2.76,2.54-2.76s2.04,0.67,2.35,2.76H147.41z M154.82,11.95
	c-1.15,1.82-2.18,2.52-3.72,2.52c-1.37,0-2.4-0.7-3.1-2.06c-0.43-0.91-0.6-1.68-0.65-3.17h7.39c-0.19-1.56-0.43-2.26-1.03-3.02
	c-0.72-0.86-1.82-1.37-3.07-1.37c-1.2,0-2.33,0.43-3.24,1.25c-1.13,0.98-1.78,2.69-1.78,4.66c0,3.31,1.73,5.38,4.49,5.38
	c2.28,0,4.08-1.42,5.09-4.01L154.82,11.95z M137.11,15.89h5.76v-0.36c-1.61-0.05-1.99-0.38-2.04-1.8v-5.4
	c0-0.77,1.01-1.97,1.68-1.97c0.14,0,0.36,0.12,0.62,0.36c0.36,0.36,0.65,0.48,0.96,0.48c0.58,0,0.94-0.41,0.94-1.08
	c0-0.79-0.5-1.27-1.32-1.27c-1.01,0-1.68,0.53-2.88,2.26V4.9l-0.12-0.05c-1.34,0.53-2.21,0.86-3.55,1.3v0.38
	c0.34-0.07,0.55-0.1,0.84-0.1c0.6,0,0.82,0.38,0.82,1.44v6c-0.05,1.25-0.19,1.39-1.7,1.66V15.89z M128.81,8.47
	c0.26-1.87,1.08-2.76,2.54-2.76s2.04,0.67,2.35,2.76H128.81z M136.22,11.95c-1.15,1.82-2.18,2.52-3.72,2.52
	c-1.37,0-2.4-0.7-3.1-2.06c-0.43-0.91-0.6-1.68-0.65-3.17h7.39c-0.19-1.56-0.43-2.26-1.03-3.02c-0.72-0.86-1.82-1.37-3.07-1.37
	c-1.2,0-2.33,0.43-3.24,1.25c-1.13,0.98-1.78,2.69-1.78,4.66c0,3.31,1.73,5.38,4.49,5.38c2.28,0,4.08-1.42,5.09-4.01L136.22,11.95z
	 M109.49,15.89h6.67v-0.46c-1.8-0.14-2.09-0.43-2.11-2.16V8.33h7.27v4.68c-0.02,2.04-0.24,2.3-2.11,2.42v0.46h6.67v-0.46
	c-1.8-0.14-2.09-0.43-2.11-2.16V2.62c0.02-1.75,0.26-1.99,2.11-2.16V0h-6.67v0.46c1.85,0.14,2.09,0.38,2.11,2.16v4.66h-7.27V2.62
	c0.02-1.75,0.26-1.99,2.11-2.16V0h-6.67v0.46c1.85,0.14,2.09,0.38,2.11,2.16v10.39c-0.02,2.04-0.24,2.3-2.11,2.42V15.89z
	 M96.72,5.52c2.02,0,3.43,2.3,3.43,5.59c0,2.74-1.08,4.34-2.88,4.34c-0.94,0-1.82-0.58-2.33-1.54c-0.67-1.25-1.06-2.93-1.06-4.63
	C93.89,7.01,94.99,5.52,96.72,5.52z M97.03,4.85c-3.14,0-5.3,2.3-5.3,5.62c0,3.26,2.23,5.66,5.26,5.66s5.33-2.52,5.33-5.86
	C102.31,7.1,100.1,4.85,97.03,4.85z M82.68,7.78c0-1.42,0.67-2.26,1.78-2.26c0.74,0,1.37,0.41,1.75,1.13
	c0.46,0.84,0.72,1.92,0.72,2.88c0,1.34-0.67,2.18-1.78,2.18c-1.49,0-2.47-1.56-2.47-3.86V7.78z M82.56,15.94
	c0.82,0.17,2.69,0.31,3.91,0.31c2.16,0,2.95,0.31,2.95,1.18c0,1.39-1.82,2.33-4.54,2.33c-2.14,0-3.5-0.7-3.5-1.75
	C81.38,17.45,81.6,17.09,82.56,15.94z M90.31,6.58V5.64h-1.85c-0.5,0-0.84-0.07-1.32-0.24l-0.53-0.19c-0.62-0.24-1.3-0.36-1.92-0.36
	c-2.23,0-4.01,1.7-4.01,3.91c0,1.51,0.62,2.42,2.23,3.22l-0.62,0.58c-0.5,0.48-0.79,0.74-0.86,0.84c-0.5,0.53-0.65,0.79-0.65,1.2
	c0,0.53,0.26,0.79,1.27,1.27c-1.73,1.25-2.35,2.04-2.35,2.93c0,1.27,1.85,2.33,4.15,2.33c1.8,0,3.67-0.62,4.92-1.63
	c0.91-0.74,1.32-1.51,1.32-2.42c0-1.49-1.13-2.47-2.9-2.57l-3.1-0.14c-1.3-0.05-1.87-0.26-1.87-0.65c0-0.48,0.79-1.32,1.44-1.51
	c0.86,0.07,1.32,0.12,1.37,0.12c0.89,0,1.85-0.36,2.59-1.01c0.79-0.67,1.15-1.51,1.15-2.71c0-0.7-0.12-1.25-0.46-2.02H90.31z
	 M72.72,5.52c2.02,0,3.43,2.3,3.43,5.59c0,2.74-1.08,4.34-2.88,4.34c-0.94,0-1.82-0.58-2.33-1.54c-0.67-1.25-1.06-2.93-1.06-4.63
	C69.89,7.01,70.99,5.52,72.72,5.52z M73.03,4.85c-3.14,0-5.3,2.3-5.3,5.62c0,3.26,2.23,5.66,5.26,5.66s5.33-2.52,5.33-5.86
	C78.31,7.1,76.1,4.85,73.03,4.85z M59.45,0h-6.77v0.46c1.75,0.12,2.04,0.43,2.09,2.16v10.66c-0.05,1.73-0.36,2.06-2.09,2.16v0.46
	h12.91l1.15-4.18h-0.6c-1.13,2.52-2.16,3.14-5.26,3.24h-1.61c-1.85-0.05-2.04-0.12-2.06-0.98V2.62c0.05-1.75,0.36-2.06,2.23-2.16V0z
	 M38.47,15.89h5.76v-0.36c-1.61-0.05-1.99-0.38-2.04-1.8v-5.4c0-0.77,1.01-1.97,1.68-1.97c0.14,0,0.36,0.12,0.62,0.36
	c0.36,0.36,0.65,0.48,0.96,0.48c0.58,0,0.94-0.41,0.94-1.08c0-0.79-0.5-1.27-1.32-1.27c-1.01,0-1.68,0.53-2.88,2.26V4.9l-0.12-0.05
	c-1.34,0.53-2.21,0.86-3.55,1.3v0.38c0.34-0.07,0.55-0.1,0.84-0.1c0.6,0,0.82,0.38,0.82,1.44v6c-0.05,1.25-0.19,1.39-1.7,1.66V15.89
	z M37.85,14.69h-0.12c-1.18-0.05-1.34-0.24-1.37-1.37V5.09h-3.79V5.5c1.49,0.07,1.78,0.31,1.78,1.51v5.64
	c0,0.67-0.12,1.01-0.46,1.27c-0.65,0.53-1.39,0.82-2.11,0.82c-0.94,0-1.7-0.82-1.7-1.82V5.09h-3.5v0.34
	c1.13,0.05,1.46,0.38,1.49,1.54v6.05c0,1.9,1.15,3.12,2.9,3.12c0.89,0,1.82-0.38,2.47-1.03l1.03-1.03v1.99l0.1,0.05
	c1.2-0.48,2.06-0.74,3.29-1.08V14.69z M20.04,5.52c2.02,0,3.43,2.3,3.43,5.59c0,2.74-1.08,4.34-2.88,4.34
	c-0.94,0-1.82-0.58-2.33-1.54c-0.67-1.25-1.06-2.93-1.06-4.63C17.21,7.01,18.31,5.52,20.04,5.52z M20.35,4.85
	c-3.14,0-5.3,2.3-5.3,5.62c0,3.26,2.23,5.66,5.26,5.66s5.33-2.52,5.33-5.86C25.63,7.1,23.42,4.85,20.35,4.85z M16.35,0h-5.26v0.46
	c1.25,0.02,1.66,0.22,1.66,0.79c0,0.24-0.1,0.53-0.34,0.89L8.98,7.56L5.42,2.23C5.16,1.85,5.02,1.44,5.02,1.18
	c0-0.46,0.34-0.65,1.1-0.7c0.1,0,0.34,0,0.6-0.02V0H0v0.46C1.15,0.5,1.49,0.84,3.89,4.22l3.14,4.61v4.18
	c-0.02,2.11-0.24,2.33-2.42,2.42v0.46h7.34v-0.46c-2.14-0.05-2.45-0.31-2.47-2.16V8.62l3.55-5.42c1.46-2.11,2.09-2.64,3.31-2.74V0z"
	/>
</svg>
